<svg xmlns="http://www.w3.org/2000/svg" width="15.916" height="34.322" viewBox="0 0 15.916 34.322">
  <g id="Component_29_1" data-name="Component 29 – 1" transform="translate(0.75 0.75)">
    <g id="Filter" transform="translate(-0.883 -0.882)">
      <path id="Stroke_1" data-name="Stroke 1" d="M5.719.588H0" transform="translate(0.883 11.839)" fill="none" stroke="#188b96" stroke-linecap="round" stroke-linejoin="round" stroke-width="1.5"/>
      <path id="Stroke_3" data-name="Stroke 3" d="M4.553,2.277A2.277,2.277,0,1,1,2.277,0,2.277,2.277,0,0,1,4.553,2.277Z" transform="translate(10.745 10.151)" fill="none" stroke="#188b96" stroke-linecap="round" stroke-linejoin="round" stroke-width="1.5"/>
      <path id="Stroke_5" data-name="Stroke 5" d="M0,.588H5.72" transform="translate(9.578 2.571)" fill="none" stroke="#188b96" stroke-linecap="round" stroke-linejoin="round" stroke-width="1.5"/>
      <path id="Stroke_7" data-name="Stroke 7" d="M0,2.277A2.277,2.277,0,1,0,2.277,0,2.276,2.276,0,0,0,0,2.277Z" transform="translate(0.883 0.882)" fill="none" stroke="#188b96" stroke-linecap="round" stroke-linejoin="round" stroke-width="1.5"/>
    </g>
    <g id="Filter-2" data-name="Filter" transform="translate(-0.883 18.118)">
      <path id="Stroke_1-2" data-name="Stroke 1" d="M5.719.588H0" transform="translate(0.883 11.839)" fill="none" stroke="#188b96" stroke-linecap="round" stroke-linejoin="round" stroke-width="1.5"/>
      <path id="Stroke_3-2" data-name="Stroke 3" d="M4.553,2.277A2.277,2.277,0,1,1,2.277,0,2.277,2.277,0,0,1,4.553,2.277Z" transform="translate(10.745 10.151)" fill="none" stroke="#188b96" stroke-linecap="round" stroke-linejoin="round" stroke-width="1.5"/>
      <path id="Stroke_5-2" data-name="Stroke 5" d="M0,.588H5.72" transform="translate(9.578 2.571)" fill="none" stroke="#188b96" stroke-linecap="round" stroke-linejoin="round" stroke-width="1.5"/>
      <path id="Stroke_7-2" data-name="Stroke 7" d="M0,2.277A2.277,2.277,0,1,0,2.277,0,2.276,2.276,0,0,0,0,2.277Z" transform="translate(0.883 0.882)" fill="none" stroke="#188b96" stroke-linecap="round" stroke-linejoin="round" stroke-width="1.5"/>
    </g>
  </g>
</svg>
