<svg id="Component_19_1" data-name="Component 19 – 1" xmlns="http://www.w3.org/2000/svg" xmlns:xlink="http://www.w3.org/1999/xlink" width="232.791" height="38.521" viewBox="0 0 232.791 38.521">
  <defs>
    <clipPath id="clip-path">
      <rect id="Rectangle_3" data-name="Rectangle 3" width="232.791" height="38.521" fill="#fff"/>
    </clipPath>
  </defs>
  <g id="Group_1" data-name="Group 1" clip-path="url(#clip-path)">
    <path id="Path_1" data-name="Path 1" d="M635.224,38.521c-.176-.225-.441-.124-.659-.159a8.806,8.806,0,0,1-5.453-3.569c-.46-.565-.921-1.13-1.34-1.724-.231-.327-.361-.28-.613-.025a17.316,17.316,0,0,1-9.95,5.152,16.7,16.7,0,0,1-10.492-1.369,9.424,9.424,0,0,1-5.244-8.375,10.616,10.616,0,0,1,2.335-7.647,15.851,15.851,0,0,1,5.7-4.21c.437-.2.552-.28.094-.638a9.285,9.285,0,0,1-3.624-5.567c-.976-4.954,1.678-9.09,6.794-10.105a12.256,12.256,0,0,1,7.255.594,7.676,7.676,0,0,1,4.591,8.061c-.4,3.34-2.456,5.32-5.219,6.805-.55.3-1.121.554-1.763.869a17.026,17.026,0,0,1,3.608,2.016,26.441,26.441,0,0,1,5.862,6.43c.774,1.119.78,1.121,1.495-.016a22.523,22.523,0,0,0,3.319-9.851,18.535,18.535,0,0,0-.207-6.1c-.054-.232-.006-.327.241-.326,1.184,0,2.368.009,3.552,0,.387,0,.382.275.418.516A19.845,19.845,0,0,1,636,14.922a32.041,32.041,0,0,1-5.666,14.269c-.139.2-.273.372-.077.626a21.764,21.764,0,0,0,2.793,3.274,5.372,5.372,0,0,0,5.013,1.213c.211-.049.419-.108.631-.153.4-.086.9-.484,1.152-.282.319.257.095.841.109,1.283.022.668-.027,1.34.017,2.006.031.471-.167.661-.588.777a12.879,12.879,0,0,1-2.372.467c-.13.011-.284-.041-.367.118ZM605.836,27.487a6.621,6.621,0,0,0,5.042,6.782,12.3,12.3,0,0,0,4.618.4,14.663,14.663,0,0,0,9.659-4.807.461.461,0,0,0,.057-.7c-.743-1.04-1.451-2.106-2.185-3.153a19.522,19.522,0,0,0-9.224-7.37,1.017,1.017,0,0,0-.894,0c-.72.363-1.472.667-2.182,1.049-3.112,1.671-4.9,4.176-4.891,7.8m9.582-24.026c-.178,0-.355-.006-.533,0a4.916,4.916,0,0,0-4.991,5.227c.086,2.769,1.655,4.615,3.988,5.919a.743.743,0,0,0,.678-.019,16.71,16.71,0,0,0,3.29-1.6A5.422,5.422,0,0,0,620.6,7.874a4.845,4.845,0,0,0-5.187-4.413" transform="translate(-530.177 0)" fill="#fff"/>
    <path id="Path_2" data-name="Path 2" d="M0,68.048c1.615.1,3.231.023,4.847.043a19.292,19.292,0,0,1,3.6.2,5.154,5.154,0,0,1,4.332,4.255A5.475,5.475,0,0,1,9.35,78.458c-.089.039-.176.079-.364.163.4.093.7.152,1,.238a5.342,5.342,0,0,1,3.933,5.935,6.614,6.614,0,0,1-6.356,5.8c-2.285.154-4.574.035-6.86.072-.235,0-.469.029-.7.044V68.048M2.678,84.222c0,1.179.009,2.357-.006,3.536,0,.335.055.494.447.485,1.162-.026,2.326.018,3.488-.019a5,5,0,0,0,3.095-.99,3.9,3.9,0,0,0,1.285-4.2C10.6,81.345,9.3,80.649,7.743,80.343a27.488,27.488,0,0,0-4.716-.183c-.366-.008-.35.221-.349.467q0,1.8,0,3.595m0-10.089c0,1.042.016,2.085-.008,3.126-.009.394.125.51.505.493.591-.027,1.183-.017,1.775,0a6.8,6.8,0,0,0,2.674-.372A3.667,3.667,0,0,0,9.956,73.2c-.161-1.434-1.161-2.31-3-2.585A35.133,35.133,0,0,0,3,70.526c-.336-.012-.322.2-.322.421q0,1.593,0,3.185" transform="translate(0 -59.984)" fill="#fff"/>
    <path id="Path_3" data-name="Path 3" d="M1668.022,124.444a15.937,15.937,0,0,0-4.184-.076,41.625,41.625,0,0,0-8.585,2.129c-4.256,1.426-8.413,3.138-12.736,4.368a23.949,23.949,0,0,1-6.862,1.1c-3.835-.048-6.414-2.111-7.21-5.794a12.17,12.17,0,0,1-.195-3.928,8.415,8.415,0,0,1,2.6-5.4c2.853-2.7,7.871-2.385,10.026.641a7.942,7.942,0,0,1,1.357,4.149c.047.646,0,1.3.035,1.946.025.419-.117.526-.529.524-3.375-.016-6.75-.009-10.125-.009-.762,0-.761,0-.674.732.03.254.038.511.082.762.41,2.343,1.789,3.517,4.279,3.688a22.038,22.038,0,0,0,6.61-.77c4.084-.966,8.055-2.336,12.1-3.432a36.938,36.938,0,0,1,9.7-1.655,9.678,9.678,0,0,1,3.37.536,2.687,2.687,0,0,1,.934.488m-32.745-2.565h3.314c1.063,0,1.063,0,.93-1.071a3.856,3.856,0,0,0-4.83-3.494,5.032,5.032,0,0,0-3.692,4.162c-.08.394.141.408.432.406,1.282-.007,2.564,0,3.846,0" transform="translate(-1435.231 -101.375)" fill="#fff"/>
    <path id="Path_4" data-name="Path 4" d="M1212.23,117.8c2.237-3.808,8.088-3.841,9.647.335a9.527,9.527,0,0,1,1.314-1.669,6.009,6.009,0,0,1,7.421-.438,5.356,5.356,0,0,1,1.762,3.437,10.839,10.839,0,0,1,.144,1.938c0,3.147-.016,6.3.015,9.442.005.549-.165.671-.663.629a8.714,8.714,0,0,0-1.479,0c-.475.041-.488-.2-.487-.562.01-2.833,0-5.665.008-8.5a12.892,12.892,0,0,0-.277-2.809c-.638-2.908-4.192-2.959-5.6-1.5a5.6,5.6,0,0,0-1.644,4.041c0,2.911-.01,5.823.009,8.734,0,.452-.1.634-.583.593a10.11,10.11,0,0,0-1.538,0c-.414.027-.534-.108-.531-.523.017-2.734.013-5.469.007-8.2a10.843,10.843,0,0,0-.27-3.043,3.116,3.116,0,0,0-2.512-2.443,3.45,3.45,0,0,0-3.553,1.2,5.415,5.415,0,0,0-1.185,3.564c0,2.951-.01,5.9.009,8.852,0,.451-.094.634-.58.593a11.055,11.055,0,0,0-1.6,0c-.389.024-.509-.1-.5-.491.022-1.278.008-2.557.008-3.836,0-3.738.007-7.475-.009-11.213,0-.448.095-.645.586-.606a14.2,14.2,0,0,0,1.657,0c.34-.013.445.113.434.444-.022.628-.006,1.258-.006,2.024" transform="translate(-1066.224 -101.329)" fill="#fff"/>
    <path id="Path_5" data-name="Path 5" d="M1426.052,117.823c2.346-3.9,8.04-3.839,9.624.311.194-.276.367-.522.539-.769a5.985,5.985,0,0,1,7.341-1.906c1.685.762,2.318,2.263,2.637,3.951a9.473,9.473,0,0,1,.146,1.76c0,3.246-.009,6.492.011,9.738,0,.45-.124.58-.562.548a10.9,10.9,0,0,0-1.538,0c-.416.028-.531-.109-.528-.524.018-2.931.008-5.862.01-8.793a13.042,13.042,0,0,0-.24-2.4c-.568-3.058-4.173-3.127-5.61-1.676a5.586,5.586,0,0,0-1.673,4.088c0,2.872-.012,5.744.01,8.616,0,.511-.088.762-.665.687-.637-.082-1.476.269-1.873-.136-.367-.375-.1-1.2-.1-1.825-.019-2.754-.008-5.507-.041-8.261a4.542,4.542,0,0,0-.919-2.929,3.542,3.542,0,0,0-5.281.026,5.411,5.411,0,0,0-1.284,3.7c0,2.931-.012,5.862.01,8.793,0,.471-.086.68-.6.628a7.479,7.479,0,0,0-1.419,0c-.507.047-.674-.093-.663-.634.037-1.908.014-3.816.014-5.724q0-4.515,0-9.03c0-.749,0-.749.778-.749.494,0,.987.013,1.48,0,.308-.011.418.1.409.408-.019.645-.005,1.291-.005,2.1" transform="translate(-1254.703 -101.308)" fill="#fff"/>
    <path id="Path_6" data-name="Path 6" d="M939.233,75.27c0,3.541-.011,7.081.012,10.622,0,.5-.14.649-.626.61a9.727,9.727,0,0,0-1.538,0c-.447.035-.559-.112-.556-.553.02-3.009-.005-6.019.025-9.028.006-.563-.123-.718-.7-.713-3.473.03-6.946.024-10.419,0-.466,0-.591.12-.588.586.021,3.049,0,6.1.021,9.146,0,.433-.1.594-.551.559a12.362,12.362,0,0,0-1.656,0c-.383.023-.454-.128-.453-.474q.013-10.8,0-21.6c0-.384.1-.517.493-.494a13.16,13.16,0,0,0,1.656,0c.437-.03.513.145.511.537-.015,2.931,0,5.862-.019,8.792,0,.476.143.589.6.587q5.239-.027,10.478,0c.486,0,.634-.121.63-.618-.023-2.911,0-5.822-.021-8.733,0-.42.072-.605.542-.567a11.211,11.211,0,0,0,1.656,0c.434-.029.518.141.516.538-.014,3.6-.008,7.2-.008,10.8" transform="translate(-812.916 -56.352)" fill="#fff"/>
    <path id="Path_7" data-name="Path 7" d="M315.306,130.949a9.995,9.995,0,0,1,4.061-1.493,18.458,18.458,0,0,1,8.206.988c2.8.864,5.506,2.023,8.326,2.841a18.887,18.887,0,0,0,5.583.893,4.85,4.85,0,0,0,1.9-.356,2.03,2.03,0,0,0,.658-3.327,4.776,4.776,0,0,0-1.692-1.055c-1.089-.456-2.2-.86-3.256-1.4a4.111,4.111,0,0,1-2.194-5.385,4.526,4.526,0,0,1,2.89-2.614,9.4,9.4,0,0,1,6.375.024.521.521,0,0,1,.423.594c-.024.7-.007,1.406-.007,2.2a8.005,8.005,0,0,0-2.691-1.022,6.429,6.429,0,0,0-2.758.056,2.242,2.242,0,0,0-1.829,1.858,2.11,2.11,0,0,0,1.348,2.27c1.2.58,2.456,1.061,3.677,1.608a7.558,7.558,0,0,1,1.179.669,4.105,4.105,0,0,1,.042,6.8,7.536,7.536,0,0,1-4.3,1.266,20.992,20.992,0,0,1-8.167-1.671c-1.839-.7-3.657-1.46-5.488-2.187-3.958-1.571-8-2.5-12.291-1.568" transform="translate(-277.942 -105.34)" fill="#fff"/>
    <path id="Path_8" data-name="Path 8" d="M197.83,123.664c0-.9,0-1.7,0-2.494,0-.2.145-.265.28-.341a9.8,9.8,0,0,1,7.189-1.088,4.541,4.541,0,0,1,3.645,4.639c.1,3.753.042,7.509.059,11.265,0,.295-.122.37-.389.365-.611-.011-1.223-.016-1.834,0-.322.009-.4-.128-.394-.422.016-.64,0-1.28,0-2.1a8.435,8.435,0,0,1-1.291,1.558,6.173,6.173,0,0,1-6.915.494,4.366,4.366,0,0,1-1.919-4.406c.274-2.678,1.963-4.227,4.964-4.65,1.58-.223,3.157-.465,4.739-.665.374-.047.441-.187.416-.523a6.764,6.764,0,0,0-.231-1.391,2.8,2.8,0,0,0-2.852-2.19,7.73,7.73,0,0,0-4.968,1.575l-.5.367m8.559,5.487a6.646,6.646,0,0,1,.005-.766c.051-.439-.131-.543-.537-.468-.522.1-1.052.146-1.577.23a17.417,17.417,0,0,0-3.642.7,2.485,2.485,0,0,0-1.726,2.712,2.52,2.52,0,0,0,1.887,2.429,4.124,4.124,0,0,0,3.709-.615,4.679,4.679,0,0,0,1.88-4.226" transform="translate(-172.975 -105.324)" fill="#fff"/>
    <path id="Path_9" data-name="Path 9" d="M1083.35,119.037c0-.739.013-1.466-.006-2.193a.549.549,0,0,1,.342-.552,9.969,9.969,0,0,1,7.2-1.054,4.689,4.689,0,0,1,3.6,4.758c.074,2.4.029,4.8.034,7.2,0,1.279-.012,2.558.008,3.836.005.358-.089.487-.462.466a15.217,15.217,0,0,0-1.657,0c-.38.02-.527-.086-.505-.486.032-.6.008-1.207.008-1.978a14.614,14.614,0,0,1-1.078,1.326,6.087,6.087,0,0,1-7.284.567,4.285,4.285,0,0,1-1.769-4.08c.218-2.738,1.723-4.289,4.6-4.785,1.65-.285,3.312-.5,4.973-.711.462-.057.6-.216.554-.665a6.586,6.586,0,0,0-.289-1.5,2.825,2.825,0,0,0-2.725-1.981,7.829,7.829,0,0,0-4.983,1.548q-.216.155-.434.306c-.011.007-.036-.005-.128-.023m8.562,5.654c0-.334-.007-.669,0-1,.007-.255-.066-.343-.346-.287-.443.088-.9.109-1.346.186a18.527,18.527,0,0,0-4.161.811,2.721,2.721,0,0,0,.216,5.069,4.158,4.158,0,0,0,4.179-.938,4.71,4.71,0,0,0,1.455-3.838" transform="translate(-953.572 -101.35)" fill="#fff"/>
    <path id="Path_10" data-name="Path 10" d="M1774.546,123.158l-3.663.938a.579.579,0,0,1-.4.029c-2.536-1.047-4.01-2.678-3.2-5.685.106-.394.025-.511-.321-.626a3.449,3.449,0,0,0-4.2,1.666,7.438,7.438,0,0,0-.912,3.853c-.006.885-.013,1.77,0,2.655.006.321-.064.5-.417.578a16.113,16.113,0,0,0-1.77.463c-.5.165-.454-.126-.453-.438q0-3.924,0-7.847c0-.9.02-1.81-.009-2.714-.013-.422.136-.55.543-.528a15.121,15.121,0,0,0,1.6,0c.387-.02.52.111.509.5a16.736,16.736,0,0,0,.092,2.49c.136-.27.266-.542.408-.809a4.317,4.317,0,0,1,4.878-2.359c.332.073.469.2.452.544-.025.506-.006,1.014-.006,1.694a10.813,10.813,0,0,1,.753-.814,7.342,7.342,0,0,1,5.354-1.6,9.386,9.386,0,0,1,2.832.548.5.5,0,0,1,.4.554c-.024.569-.025,1.141,0,1.71.018.434-.072.514-.481.289a6.781,6.781,0,0,0-4.8-.769,2.175,2.175,0,0,0-1.911,2.779A2.236,2.236,0,0,0,1771,121.61a27.176,27.176,0,0,0,2.82,1.211c.193.084.381.175.731.337" transform="translate(-1550.743 -101.497)" fill="#fff"/>
    <path id="Path_11" data-name="Path 11" d="M372.205,122.5a8.458,8.458,0,0,1,1.2-1.487,6.191,6.191,0,0,1,6.826-.968,5.2,5.2,0,0,1,2.63,4.17,47.692,47.692,0,0,1,.139,5.829c.012.467,0,.934,0,1.472-.85-.342-1.63-.659-2.414-.968-.283-.111-.209-.346-.21-.55q-.006-1.828,0-3.657a7.792,7.792,0,0,0-.249-1.923,3.562,3.562,0,0,0-5.242-2.383,4.793,4.793,0,0,0-2.674,4.342c-.03.431-.015.865,0,1.3.008.257-.081.345-.344.316q-1-.108-2-.177c-.243-.017-.286-.143-.285-.346q0-3.657,0-7.313c0-.268.111-.333.354-.328.631.011,1.263.02,1.893,0,.329-.012.395.121.388.413-.017.7-.005,1.4-.005,2.265" transform="translate(-325.78 -105.274)" fill="#fff"/>
    <path id="Path_12" data-name="Path 12" d="M134.847,123.534a9.919,9.919,0,0,1,1.557-2.11,4.209,4.209,0,0,1,3.847-.988c.241.045.443.11.434.44-.021.762-.007,1.525-.007,2.342a4.623,4.623,0,0,0-1.682-.462,3.572,3.572,0,0,0-3.5,2.323,8.139,8.139,0,0,0-.646,3.447c0,2.536-.012,5.073.01,7.609,0,.471-.091.68-.609.633a10.51,10.51,0,0,0-1.537,0c-.386.022-.516-.1-.506-.495.026-.963.009-1.926.009-2.89,0-4.05.009-8.1-.012-12.15,0-.5.139-.648.625-.61a12.455,12.455,0,0,0,1.6,0c.351-.018.435.123.428.443-.017.822-.006,1.644-.006,2.467" transform="translate(-116.536 -106.075)" fill="#fff"/>
    <path id="Path_13" data-name="Path 13" d="M1829.093,214.09a9.409,9.409,0,0,1-3.662-.656c-.437-.169-.716-.385-.611-.9a1.489,1.489,0,0,0,0-.294c0-.972.688-1.388,1.62-.98a7.329,7.329,0,0,0,4.624.467,1.985,1.985,0,0,0,1.791-2.351c-.009-.29.059-.42.346-.5.608-.162,1.212-.344,1.8-.556.377-.135.463.011.524.349a4.3,4.3,0,0,1-2.663,4.708,8.513,8.513,0,0,1-3.775.709" transform="translate(-1608.554 -183.593)" fill="#fff"/>
    <path id="Path_14" data-name="Path 14" d="M324.137,127.013c0-1.258.01-2.516-.006-3.773,0-.36.062-.539.482-.511a16.446,16.446,0,0,0,1.714,0c.322-.012.451.073.449.422-.013,2.417-.009,4.834,0,7.252,0,.271-.044.426-.367.473a15.907,15.907,0,0,0-1.85.374c-.377.1-.428-.021-.424-.35.013-1.3.005-2.594.005-3.891" transform="translate(-285.72 -108.183)" fill="#fff"/>
    <path id="Path_15" data-name="Path 15" d="M326.762,225.714c0,.549-.01,1.1,0,1.647.007.278-.095.384-.376.378q-.944-.02-1.888,0c-.282.006-.379-.1-.376-.378.01-1.078.016-2.157,0-3.235-.006-.324.16-.411.418-.434.607-.053,1.215-.092,1.821-.148.313-.029.414.1.405.405-.016.588,0,1.176,0,1.764" transform="translate(-285.713 -197.051)" fill="#fff"/>
    <path id="Path_16" data-name="Path 16" d="M369.523,228c0-.471.023-.944-.007-1.413-.025-.4.051-.578.506-.47.685.161,1.566.045,2.012.5.389.4.091,1.236.109,1.878.013.468.157,1.09-.081,1.368-.283.33-.927.1-1.413.11-1.127.018-1.127.006-1.127-1.089V228" transform="translate(-325.723 -199.295)" fill="#fff"/>
    <path id="Path_17" data-name="Path 17" d="M324.658,61.812a1.7,1.7,0,1,1-1.675-1.735,1.636,1.636,0,0,1,1.675,1.735" transform="translate(-283.189 -52.958)" fill="#fff"/>
    <path id="Path_18" data-name="Path 18" d="M463.121,252.127c-.7,0-1.391,0-2.087,0-.128,0-.314.044-.335-.142a1.5,1.5,0,0,1,.026-.689c.068-.173.273-.021.408.025.673.232,1.343.472,2.013.708l-.025.1" transform="translate(-406.081 -221.444)" fill="#fff"/>
    <path id="Path_19" data-name="Path 19" d="M1762.92,248.912c.575-.174,1.149-.35,1.725-.522.141-.042.318-.176.422-.009a.8.8,0,0,1,.042.453c-.02.234-.218.179-.364.18-.607,0-1.213,0-1.82,0,0-.034,0-.069-.005-.1" transform="translate(-1554.01 -218.875)" fill="#fff"/>
  </g>
</svg>
