<svg id="Buy" xmlns="http://www.w3.org/2000/svg" width="22.383" height="21.935" viewBox="0 0 22.383 21.935">
  <path id="Buy-2" data-name="Buy" d="M16.966,20.241a1.7,1.7,0,1,1,1.7,1.694A1.7,1.7,0,0,1,16.966,20.241Zm-12.592,0a1.695,1.695,0,1,1,1.694,1.694A1.7,1.7,0,0,1,4.374,20.241Zm1.882-3.469a2.874,2.874,0,0,1-2.826-2.436l-.021-.183L2.385,1.959.7,1.667A.842.842,0,0,1,0,.81L.012.7A.838.838,0,0,1,.839,0h.03L.983.012l2.328.4a.838.838,0,0,1,.673.634L4,1.172l.263,3.136H20.043a2.317,2.317,0,0,1,1.713.745,2.345,2.345,0,0,1,.62,1.761l-.018.169L21.3,14.323a2.87,2.87,0,0,1-2.645,2.443l-.183.006ZM5.081,14.013a1.181,1.181,0,0,0,1.045,1.074l.13.007H18.469a1.18,1.18,0,0,0,1.14-.88l.026-.131L20.7,6.743a.662.662,0,0,0-.556-.748l-.1-.008H4.407Zm8.489-3.89a.839.839,0,0,1-.114-1.671l.114-.008h3.1a.84.84,0,0,1,.114,1.672l-.114.007Z" fill="#188b96"/>
</svg>
