<svg id="Component_27_1" data-name="Component 27 – 1" xmlns="http://www.w3.org/2000/svg" xmlns:xlink="http://www.w3.org/1999/xlink" width="21.942" height="21.935" viewBox="0 0 21.942 21.935">
  <defs>
    <clipPath id="clip-path">
      <rect id="Rectangle_19" data-name="Rectangle 19" width="21.942" height="21.935" fill="#188b96"/>
    </clipPath>
  </defs>
  <g id="Group_4" data-name="Group 4" clip-path="url(#clip-path)">
    <path id="Path_24" data-name="Path 24" d="M44.473,3.319,41.862,1.968,47.237,0l1.516,5.521L46.178,4.2c-.31.469-.6.932-.914,1.378a21.586,21.586,0,0,1-6.9,6.251,25.826,25.826,0,0,1-5.386,2.313.916.916,0,1,1-.5-1.762,21.843,21.843,0,0,0,6.861-3.382,19,19,0,0,0,5.14-5.675" transform="translate(-27.116)" fill="#188b96"/>
    <path id="Path_25" data-name="Path 25" d="M135.678,49.228q0-3.335,0-6.671a1.907,1.907,0,0,1,.045-.436,1,1,0,0,1,1.014-.821,1.018,1.018,0,0,1,.945.906,9.827,9.827,0,0,1,.035,1.126q0,6.278,0,12.556a1.954,1.954,0,0,1-.051.485,1.007,1.007,0,0,1-1.085.792,1.075,1.075,0,0,1-.9-1.095c-.011-.907,0-1.815-.005-2.722q0-2.06,0-4.12Z" transform="translate(-115.778 -35.243)" fill="#188b96"/>
    <path id="Path_26" data-name="Path 26" d="M103.811,76.638q0,2.243,0,4.487a2.036,2.036,0,0,1-.023.39,1,1,0,0,1-2-.141c-.022-.768-.011-1.536-.011-2.3q0-3.469,0-6.939a1.9,1.9,0,0,1,.031-.414,1.044,1.044,0,0,1,1.054-.845,1.08,1.08,0,0,1,.939,1.034c.018.473.007.948.007,1.422q0,1.655,0,3.31" transform="translate(-86.849 -60.475)" fill="#188b96"/>
    <path id="Path_27" data-name="Path 27" d="M69.868,98.195c0,.939,0,1.878,0,2.817a2.008,2.008,0,0,1-.033.364.993.993,0,0,1-1.973.03,1.593,1.593,0,0,1-.038-.339q0-2.866,0-5.732a1.61,1.61,0,0,1,.049-.387.99.99,0,0,1,1.949.018,1.99,1.99,0,0,1,.045.437c0,.931,0,1.861,0,2.792" transform="translate(-57.875 -80.336)" fill="#188b96"/>
    <path id="Path_28" data-name="Path 28" d="M35.993,111.911c0,.58,0,1.159,0,1.739a1.843,1.843,0,0,1-.03.389,1.02,1.02,0,0,1-1.067.848,1.06,1.06,0,0,1-.925-1.065c-.011-1.265,0-2.531,0-3.8a1.008,1.008,0,1,1,2.013-.074c.023.652.005,1.306.005,1.959h.008" transform="translate(-28.982 -92.962)" fill="#188b96"/>
    <path id="Path_29" data-name="Path 29" d="M2.041,124.261c0,.31.012.621,0,.931a1.051,1.051,0,0,1-1.217,1.055,1.01,1.01,0,0,1-.791-.92,18.9,18.9,0,0,1,0-2.078,1.01,1.01,0,0,1,1.025-.981,1.082,1.082,0,0,1,.988,1.063c.015.31,0,.62,0,.931" transform="translate(0 -104.336)" fill="#188b96"/>
    <path id="Path_30" data-name="Path 30" d="M2.231,88.783a4.134,4.134,0,0,1-.089.5,1.015,1.015,0,0,1-.932.74.961.961,0,0,1-.954-.733,2.475,2.475,0,0,1-.015-.985.98.98,0,0,1,1.045-.774,1.094,1.094,0,0,1,.92,1.027c.007.073,0,.147,0,.22l.024,0" transform="translate(-0.17 -74.692)" fill="#188b96"/>
  </g>
</svg>
