<svg xmlns="http://www.w3.org/2000/svg" width="68" height="42.16" viewBox="0 0 68 42.16">
  <g id="Component_24_4" data-name="Component 24 – 4" transform="translate(0 0.75)">
    <text id="INVENTORY" transform="translate(0 38.41)" fill="#3d3d3e" font-size="12" font-family="Muli-Light, Muli" font-weight="300"><tspan x="0" y="0">INVENTORY</tspan></text>
    <g id="Document" transform="translate(25.167)">
      <path id="Stroke_1" data-name="Stroke 1" d="M7.22.5H0" transform="translate(4.746 12.974)" fill="none" stroke="#959595" stroke-linecap="round" stroke-linejoin="round" stroke-width="1.5"/>
      <path id="Stroke_2" data-name="Stroke 2" d="M7.22.5H0" transform="translate(4.746 8.787)" fill="none" stroke="#959595" stroke-linecap="round" stroke-linejoin="round" stroke-width="1.5"/>
      <path id="Stroke_3" data-name="Stroke 3" d="M2.755.5H0" transform="translate(4.746 4.61)" fill="none" stroke="#959595" stroke-linecap="round" stroke-linejoin="round" stroke-width="1.5"/>
      <path id="Stroke_4" data-name="Stroke 4" d="M12.158,0,4.469,0A4.251,4.251,0,0,0,0,4.607v9.2A4.254,4.254,0,0,0,4.506,18.41l7.689,0a4.252,4.252,0,0,0,4.47-4.6v-9.2A4.255,4.255,0,0,0,12.158,0Z" fill="none" stroke="#959595" stroke-linecap="round" stroke-linejoin="round" stroke-width="1.5"/>
    </g>
  </g>
</svg>
