<svg id="Component_24_5" data-name="Component 24 – 5" xmlns="http://www.w3.org/2000/svg" width="45" height="45" viewBox="0 0 45 45">
  <g id="Group_21372" data-name="Group 21372" transform="translate(-987 -26)">
    <rect id="Rectangle_4" data-name="Rectangle 4" width="45" height="45" rx="10" transform="translate(987 26)" fill="rgba(86,197,208,0.25)"/>
    <g id="Document" transform="translate(1001.168 38.795)">
      <path id="Stroke_1" data-name="Stroke 1" d="M7.22.5H0" transform="translate(4.746 12.974)" fill="none" stroke="#188b96" stroke-linecap="round" stroke-linejoin="round" stroke-width="1.5"/>
      <path id="Stroke_2" data-name="Stroke 2" d="M7.22.5H0" transform="translate(4.746 8.787)" fill="none" stroke="#188b96" stroke-linecap="round" stroke-linejoin="round" stroke-width="1.5"/>
      <path id="Stroke_3" data-name="Stroke 3" d="M2.755.5H0" transform="translate(4.746 4.61)" fill="none" stroke="#188b96" stroke-linecap="round" stroke-linejoin="round" stroke-width="1.5"/>
      <path id="Stroke_4" data-name="Stroke 4" d="M12.158,0,4.469,0A4.251,4.251,0,0,0,0,4.607v9.2A4.254,4.254,0,0,0,4.506,18.41l7.689,0a4.252,4.252,0,0,0,4.47-4.6v-9.2A4.255,4.255,0,0,0,12.158,0Z" fill="none" stroke="#188b96" stroke-linecap="round" stroke-linejoin="round" stroke-width="1.5"/>
    </g>
  </g>
</svg>
