<svg id="Component_39_1" data-name="Component 39 – 1" xmlns="http://www.w3.org/2000/svg" width="102" height="102" viewBox="0 0 102 102">
  <rect id="Rectangle_3642" data-name="Rectangle 3642" width="102" height="102" rx="24" fill="rgba(86,197,208,0.25)"/>
  <g id="Scan" transform="translate(33 25)">
    <path id="Scan-2" data-name="Scan" d="M23.892,30a1.244,1.244,0,1,1,0-2.488H26.5a4.029,4.029,0,0,0,4.028-4.023V17.556H26.234v1.653a3.748,3.748,0,0,1-3.714,3.777H13.48a3.748,3.748,0,0,1-3.713-3.777V17.556H5.476V23.5A4.023,4.023,0,0,0,9.49,27.51l2.664,0a1.244,1.244,0,1,1,0,2.488L9.487,30a6.516,6.516,0,0,1-6.5-6.5v-5.94H1.247a1.244,1.244,0,1,1,0-2.487H34.756a1.243,1.243,0,1,1,0,2.487H33.018v5.933A6.522,6.522,0,0,1,26.5,30ZM10.211,12.539a.459.459,0,0,1-.442-.449V10.014a3.746,3.746,0,0,1,3.713-3.776h9.04a3.679,3.679,0,0,1,2.632,1.1,3.811,3.811,0,0,1,1.082,2.672V12.09a.463.463,0,0,1-.446.449ZM30.526,9.6V6.51A4.028,4.028,0,0,0,26.5,2.489H23.892a1.244,1.244,0,1,1,0-2.489H26.5a6.519,6.519,0,0,1,6.517,6.51V9.6a1.245,1.245,0,0,1-2.49,0ZM2.984,9.6V6.5A6.515,6.515,0,0,1,9.487,0l2.666,0h0a1.244,1.244,0,1,1,0,2.489l-2.666,0A4.022,4.022,0,0,0,5.477,6.5V9.6a1.247,1.247,0,0,1-2.493,0Z" fill="#188b96"/>
  </g>
  <text id="Print" transform="translate(31 83)" fill="#188b96" font-size="18" font-family="Muli-SemiBold, Muli" font-weight="600"><tspan x="0" y="0">Print</tspan></text>
</svg>
