<svg id="_3_User" data-name="3 User" xmlns="http://www.w3.org/2000/svg" width="28.561" height="22" viewBox="0 0 28.561 22">
  <path id="_3_User-2" data-name="3 User" d="M5.488,17.838a3.358,3.358,0,0,1,2.3-3.252,16.837,16.837,0,0,1,6.486-.932l.4,0a15.873,15.873,0,0,1,6.2.967,3.426,3.426,0,0,1,.1,6.35,14.686,14.686,0,0,1-5.915,1.021L14.274,22C8.2,22,5.488,20.717,5.488,17.838Zm1.947,0c0,1.832,3.72,2.217,6.839,2.217,4.475,0,6.839-.774,6.839-2.239,0-1.831-3.718-2.215-6.839-2.215C9.8,15.6,7.435,16.374,7.435,17.838Zm16.8.524A.973.973,0,0,1,25,17.213c.847-.174,1.4-.452,1.539-.74a.822.822,0,0,0,0-.7c-.139-.291-.7-.57-1.558-.739a11.279,11.279,0,0,0-1.7-.245.973.973,0,1,1,.134-1.942,12.971,12.971,0,0,1,1.965.284,3.727,3.727,0,0,1,2.915,1.805,2.765,2.765,0,0,1,0,2.373,3.731,3.731,0,0,1-2.9,1.811.971.971,0,0,1-1.149-.757Zm-21.067.757a3.731,3.731,0,0,1-2.9-1.81,2.755,2.755,0,0,1,0-2.374,3.518,3.518,0,0,1,2.618-1.744l.267-.057a13.251,13.251,0,0,1,1.992-.288.973.973,0,1,1,.134,1.942,11.288,11.288,0,0,0-1.294.162l-.432.089c-.832.163-1.391.443-1.53.735a.811.811,0,0,0,0,.7c.137.288.691.566,1.538.74a.973.973,0,1,1-.392,1.906Zm6.869-8.9a6,6,0,0,1,0-8.468A5.979,5.979,0,0,1,20.254,5.979a5.986,5.986,0,0,1-10.213,4.235Zm1.376-7.091a4.059,4.059,0,1,0,2.857-1.176A4.011,4.011,0,0,0,11.417,3.123Zm9.225,6.6a.973.973,0,0,1,.973-.973,2.792,2.792,0,1,0,0-5.584.973.973,0,0,1,0-1.946,4.737,4.737,0,1,1,0,9.475A.973.973,0,0,1,20.642,9.725ZM2.206,5.96A4.738,4.738,0,0,1,6.946,1.223a.973.973,0,1,1,0,1.946,2.792,2.792,0,1,0,0,5.584.973.973,0,1,1,0,1.946A4.738,4.738,0,0,1,2.206,5.96Z" fill="#188b96"/>
</svg>
